<svg xmlns="http://www.w3.org/2000/svg" width="37.333" height="31.252" viewBox="0 0 37.333 31.252">
  <g id="chat" transform="translate(-226.333 -293.444)">
    <path id="Vector" d="M10.612,4.548V19.124a4.678,4.678,0,0,1-4.664,4.664H3.5V28.8L0,26V22.739A2.463,2.463,0,0,1,2.449,20.29a4.678,4.678,0,0,0,4.664-4.664S7.113.35,7,0a4.631,4.631,0,0,1,3.615,4.548Z" transform="translate(251.871 294.727)" fill="#ffe1da"/>
    <path id="Vector-2" data-name="Vector" d="M37.315,8.979V20.407a5.774,5.774,0,0,1-5.831,5.831H30.2v3.848a1.34,1.34,0,0,1-.7,1.049c-.117.117-.233.117-.466.117a1.657,1.657,0,0,1-.7-.233l-5.831-4.781H5.714a1.166,1.166,0,1,1,0-2.332H22.856a1.657,1.657,0,0,1,.7.233l4.315,3.5V25.071a1.2,1.2,0,0,1,1.166-1.166h2.449a3.508,3.508,0,0,0,3.5-3.5V8.979a1.166,1.166,0,0,1,2.332,0ZM3.382,22.972a1.127,1.127,0,0,1,0,1.633,1.059,1.059,0,0,1-.816.35,1.059,1.059,0,0,1-.816-.35A5.918,5.918,0,0,1,0,20.407V5.831A5.774,5.774,0,0,1,5.831,0H31.6a5.838,5.838,0,0,1,5.714,5.481,1.008,1.008,0,0,1-1.049,1.166A1.113,1.113,0,0,1,34.983,5.6a3.551,3.551,0,0,0-3.5-3.265H5.831a3.508,3.508,0,0,0-3.5,3.5V20.407a3.618,3.618,0,0,0,1.049,2.565Z" transform="translate(226.333 293.444)" fill="#6b6969"/>
    <path id="Vector-3" data-name="Vector" d="M1.982,0A2.043,2.043,0,0,1,3.965,1.982,2.043,2.043,0,0,1,1.982,3.965,2.043,2.043,0,0,1,0,1.982,1.9,1.9,0,0,1,1.982,0Zm8.046,0a2.043,2.043,0,0,1,1.982,1.982,2.043,2.043,0,0,1-1.982,1.982A2.043,2.043,0,0,1,8.046,1.982,1.965,1.965,0,0,1,10.029,0Zm8.046,0a2.043,2.043,0,0,1,1.982,1.982,1.982,1.982,0,0,1-3.965,0A1.965,1.965,0,0,1,18.075,0Z" transform="translate(234.962 303.939)" fill="#6b6969"/>
  </g>
</svg>
