<svg xmlns="http://www.w3.org/2000/svg" width="14" height="15" viewBox="0 0 14 15">
  <g id="check" transform="translate(-64 -315)">
    <path id="Vector" d="M7,15a6.582,6.582,0,0,1-2.68-.568,6.973,6.973,0,0,1-2.272-1.626,7.894,7.894,0,0,1,0-10.609,6.678,6.678,0,0,1,9.9,0,7.893,7.893,0,0,1,0,10.609A6.972,6.972,0,0,1,9.68,14.432,6.582,6.582,0,0,1,7,15ZM7,1.2a5.508,5.508,0,0,0-2.253.477A5.836,5.836,0,0,0,2.84,3.046a6.632,6.632,0,0,0,0,8.912,5.618,5.618,0,0,0,8.32,0,6.632,6.632,0,0,0,0-8.912A5.838,5.838,0,0,0,9.253,1.677,5.51,5.51,0,0,0,7,1.2Z" transform="translate(64 315)" fill="#649ffe"/>
    <path id="Vector-2" data-name="Vector" d="M11.556,12.382h.006" transform="translate(64 315)" fill="#649ffe"/>
    <path id="Vector-3" data-name="Vector" d="M2.721,5a.5.5,0,0,1-.2-.041.517.517,0,0,1-.168-.117L.152,2.547a.543.543,0,0,1-.112-.175.562.562,0,0,1,0-.414.543.543,0,0,1,.112-.175A.518.518,0,0,1,.32,1.665a.5.5,0,0,1,.4,0,.518.518,0,0,1,.168.117L2.721,3.694,6.114.158A.518.518,0,0,1,6.283.041a.5.5,0,0,1,.4,0,.518.518,0,0,1,.168.117.543.543,0,0,1,.112.175.562.562,0,0,1,0,.414.543.543,0,0,1-.112.175L3.088,4.842a.516.516,0,0,1-.168.117.5.5,0,0,1-.2.041Z" transform="translate(68 320)"/>
  </g>
</svg>
